# xmcd
#
# Track frame offsets:
#	150
#	19833
#	33846
#	58150
#	77887
#	101083
#	130773
#	152255
#	171095
#	187960
#
# Disc length: 2930 seconds
#
# Revision: 1
# Processed by: cddbd v1.5.2PL0 Copyright (c) Steve Scherf et al.
# Submitted via: audiograbber 1.83.01
#
DISCID=740b700a
DTITLE=Karl Williams - Living At The End Of Time
DYEAR=1999
DGENRE=Country
TTITLE0=Nancy
TTITLE1=Got To Be You
TTITLE2=It's a Pleasure to Know You
TTITLE3=Hawks Above The Highway
TTITLE4=Classified Love
TTITLE5=Living at the End of Time
TTITLE6=Humility
TTITLE7=If You're Gonna Do It, Do It Right
TTITLE8=You're So Good to Me
TTITLE9=Size 13 Blues
EXTD=
EXTT0=
EXTT1=
EXTT2=
EXTT3=
EXTT4=
EXTT5=
EXTT6=
EXTT7=
EXTT8=
EXTT9=
PLAYORDER=
